{
  "accessors": [
    {
      "bufferView": 2,
      "componentType": 5126,
      "count": 1681,
      "max": [
        1.3023921251296997,
        8.566012382507324,
        2.3775761127471924
      ],
      "min": [
        -3.4560108184814453,
        -0.5914756655693054,
        -2.2892022132873535
      ],
      "type": "VEC3"
    },
    {
      "bufferView": 2,
      "byteOffset": 20172,
      "componentType": 5126,
      "count": 1681,
      "max": [
        0.9999990463256836,
        0.9999912977218628,
        0.9998432993888855
      ],
      "min": [
        -1.0,
        -0.999991238117218,
        -0.9999336004257202
      ],
      "type": "VEC3"
    },
    {
      "bufferView": 1,
      "componentType": 5126,
      "count": 1681,
      "max": [
        0.988506555557251,
        0.9839105606079102
      ],
      "min": [
        0.018123388290405273,
        0.024885237216949463
      ],
      "type": "VEC2"
    },
    {
      "bufferView": 0,
      "componentType": 5125,
      "count": 3528,
      "type": "SCALAR"
    },
    {
      "bufferView": 2,
      "byteOffset": 40344,
      "componentType": 5126,
      "count": 30,
      "max": [
        0.5,
        0.05284549295902252,
        0.5
      ],
      "min": [
        -0.5,
        0.0,
        -0.5
      ],
      "type": "VEC3"
    },
    {
      "bufferView": 2,
      "byteOffset": 40704,
      "componentType": 5126,
      "count": 30,
      "max": [
        0.1022183895111084,
        1.0,
        0.0761493667960167
      ],
      "min": [
        -0.13214948773384094,
        0.9910297393798828,
        -0.12375524640083313
      ],
      "type": "VEC3"
    },
    {
      "bufferView": 1,
      "byteOffset": 13448,
      "componentType": 5126,
      "count": 30,
      "max": [
        1.0,
        1.0
      ],
      "min": [
        0.0,
        0.0
      ],
      "type": "VEC2"
    },
    {
      "bufferView": 1,
      "byteOffset": 13688,
      "componentType": 5126,
      "count": 30,
      "max": [
        1.0,
        1.0
      ],
      "min": [
        0.0,
        0.0
      ],
      "type": "VEC2"
    },
    {
      "bufferView": 0,
      "byteOffset": 14112,
      "componentType": 5125,
      "count": 120,
      "type": "SCALAR"
    },
    {
      "bufferView": 2,
      "byteOffset": 41064,
      "componentType": 5126,
      "count": 264,
      "max": [
        0.503100574016571,
        0.4955279231071472,
        0.5157645344734192
      ],
      "min": [
        -0.518153727054596,
        -0.47960376739501953,
        -0.5157608985900879
      ],
      "type": "VEC3"
    },
    {
      "bufferView": 2,
      "byteOffset": 44232,
      "componentType": 5126,
      "count": 264,
      "max": [
        0.9763138890266418,
        0.9998131394386292,
        0.9965085387229919
      ],
      "min": [
        -0.9986409544944763,
        -0.9982222318649292,
        -0.9965068697929382
      ],
      "type": "VEC3"
    },
    {
      "bufferView": 1,
      "byteOffset": 13928,
      "componentType": 5126,
      "count": 264,
      "max": [
        0.875,
        0.9999998807907104
      ],
      "min": [
        0.125,
        0.0
      ],
      "type": "VEC2"
    },
    {
      "bufferView": 0,
      "byteOffset": 14592,
      "componentType": 5125,
      "count": 396,
      "type": "SCALAR"
    }
  ],
  "asset": {
    "extras": {
      "author": "myochii (https://sketchfab.com/myochii)",
      "license": "CC-BY-4.0 (http://creativecommons.org/licenses/by/4.0/)",
      "source": "https://sketchfab.com/3d-models/pine-tree-28db2fc0596348448f648e37cd13eb93",
      "title": "pine tree"
    },
    "generator": "Sketchfab-12.66.0",
    "version": "2.0"
  },
  "bufferViews": [
    {
      "buffer": 0,
      "byteLength": 16176,
      "name": "floatBufferViews",
      "target": 34963
    },
    {
      "buffer": 0,
      "byteLength": 16040,
      "byteOffset": 16176,
      "byteStride": 8,
      "name": "floatBufferViews",
      "target": 34962
    },
    {
      "buffer": 0,
      "byteLength": 47400,
      "byteOffset": 32216,
      "byteStride": 12,
      "name": "floatBufferViews",
      "target": 34962
    }
  ],
  "buffers": [
    {
      "byteLength": 79616,
      "uri": "scene.bin"
    }
  ],
  "images": [
    {
      "uri": "textures/lambert1_baseColor.png"
    },
    {
      "uri": "textures/lambert2_baseColor.png"
    }
  ],
  "materials": [
    {
      "doubleSided": true,
      "name": "lambert1",
      "pbrMetallicRoughness": {
        "baseColorTexture": {
          "index": 0
        },
        "metallicFactor": 0.0,
        "roughnessFactor": 0.6
      }
    },
    {
      "alphaMode": "BLEND",
      "doubleSided": true,
      "name": "lambert2",
      "pbrMetallicRoughness": {
        "baseColorTexture": {
          "index": 1
        },
        "metallicFactor": 0.0,
        "roughnessFactor": 0.6
      }
    },
    {
      "doubleSided": true,
      "name": "lambert3",
      "pbrMetallicRoughness": {
        "baseColorFactor": [
          0.519649,
          0.549661,
          0.563,
          1.0
        ],
        "metallicFactor": 0.0,
        "roughnessFactor": 0.7125218126212234
      }
    }
  ],
  "meshes": [
    {
      "name": "group3_pasted__group1_pasted__pasted__pCone1_lambert1_0",
      "primitives": [
        {
          "attributes": {
            "NORMAL": 1,
            "POSITION": 0,
            "TEXCOORD_0": 2
          },
          "indices": 3,
          "material": 0,
          "mode": 4
        }
      ]
    },
    {
      "name": "pPlane1_lambert2_0",
      "primitives": [
        {
          "attributes": {
            "NORMAL": 5,
            "POSITION": 4,
            "TEXCOORD_0": 6,
            "TEXCOORD_1": 7
          },
          "indices": 8,
          "material": 1,
          "mode": 4
        }
      ]
    },
    {
      "name": "pCube3_lambert3_0",
      "primitives": [
        {
          "attributes": {
            "NORMAL": 10,
            "POSITION": 9,
            "TEXCOORD_0": 11
          },
          "indices": 12,
          "material": 2,
          "mode": 4
        }
      ]
    }
  ],
  "nodes": [
    {
      "children": [
        1
      ],
      "matrix": [
        1.0,
        0.0,
        0.0,
        0.0,
        0.0,
        2.220446049250313e-16,
        -1.0,
        0.0,
        0.0,
        1.0,
        2.220446049250313e-16,
        0.0,
        0.0,
        0.0,
        0.0,
        1.0
      ],
      "name": "Sketchfab_model"
    },
    {
      "children": [
        2
      ],
      "matrix": [
        1.0,
        0.0,
        0.0,
        0.0,
        0.0,
        0.0,
        1.0,
        0.0,
        0.0,
        -1.0,
        0.0,
        0.0,
        0.0,
        0.0,
        0.0,
        1.0
      ],
      "name": "269b549831cb45e192d009505178a374.fbx"
    },
    {
      "children": [
        3,
        5,
        7
      ],
      "name": "RootNode"
    },
    {
      "children": [
        4
      ],
      "matrix": [
        1.0,
        0.0,
        0.0,
        0.0,
        0.0,
        1.0,
        0.0,
        0.0,
        0.0,
        0.0,
        1.0,
        0.0,
        0.0,
        0.6553266048431396,
        0.0,
        1.0
      ],
      "name": "group3_pasted__group1_pasted__pasted__pCone1"
    },
    {
      "mesh": 0,
      "name": "group3_pasted__group1_pasted__pasted__pCone1_lambert1_0"
    },
    {
      "children": [
        6
      ],
      "matrix": [
        6.764575481414795,
        0.0,
        0.0,
        0.0,
        0.0,
        6.764575481414795,
        0.0,
        0.0,
        0.0,
        0.0,
        6.764575481414795,
        0.0,
        -0.7027288675308228,
        0.057553987950086594,
        0.10722161829471588,
        1.0
      ],
      "name": "pPlane1"
    },
    {
      "mesh": 1,
      "name": "pPlane1_lambert2_0"
    },
    {
      "children": [
        8
      ],
      "matrix": [
        0.6968438625335693,
        0.0,
        0.0,
        0.0,
        0.0,
        0.6968438625335693,
        0.0,
        0.0,
        0.0,
        0.0,
        0.6968438625335693,
        0.0,
        -0.8449106216430664,
        0.3676426410675049,
        0.1775786280632019,
        1.0
      ],
      "name": "pCube3"
    },
    {
      "mesh": 2,
      "name": "pCube3_lambert3_0"
    }
  ],
  "samplers": [
    {
      "magFilter": 9729,
      "minFilter": 9987,
      "wrapS": 10497,
      "wrapT": 10497
    }
  ],
  "scene": 0,
  "scenes": [
    {
      "name": "Sketchfab_Scene",
      "nodes": [
        0
      ]
    }
  ],
  "textures": [
    {
      "sampler": 0,
      "source": 0
    },
    {
      "sampler": 0,
      "source": 1
    }
  ]
}
